# xmcd
#
# Track frame offsets: 
#        150
#        22301
#        46907
#        78641
#        91911
#        112872
#        133405
#        156449
#        180422
#        198514
#
# Disc length: 2910 seconds
#
# Revision: 9
# Processed by: cddbd v1.5.2PL0 Copyright (c) Steve Scherf et al.
# Submitted via: ExactAudioCopy v0.95b4
#
DISCID=850b5c0a
DTITLE=Kevin Kern - Summer Daydreams
DYEAR=2003
DGENRE=New Age
TTITLE0=Le Jardin
TTITLE1=Once in the Long Ago
TTITLE2=Twilight's Embrace
TTITLE3=Water Tapestry
TTITLE4=Pan's Return
TTITLE5=Pastel Refletions
TTITLE6=Whisperings
TTITLE7=Summer Daydreams
TTITLE8=Dance of the Dragonfly
TTITLE9=Return to Love
EXTD=YEAR: 2003
EXTT0=
EXTT1=
EXTT2=
EXTT3=
EXTT4=
EXTT5=
EXTT6=
EXTT7=
EXTT8=
EXTT9=
PLAYORDER=
